<svg width="200px" height="43px" xmlns="http://www.w3.org/2000/svg" viewBox="-104.50502929687497 5.58499450683594 709.0100585937499 138.83001098632812" style="background: none;" preserveAspectRatio="xMidYMid"><defs><filter id="editing-hover" x="-100%" y="-100%" width="300%" height="300%"><feFlood flood-color="rgba(16.180557053009885%,23.317752761481945%,28.952380952380953%,0.388)" result="flood"></feFlood><feComposite operator="in" in2="SourceAlpha" in="flood" result="shadow"></feComposite><feOffset dx="-0.6" dy="-3.3" in="SourceGraphic" result="offset-1"></feOffset><feOffset dx="0.6" dy="3.3" in="shadow" result="offset-2"></feOffset><feMerge><feMergeNode in="offset-2"></feMergeNode><feMergeNode in="offset-1"></feMergeNode></feMerge></filter></defs><g filter="url(#editing-hover)"><g transform="translate(-3.2500109672546387, 100.34500122070312)"><path d="M56-39.30L56-49.79L76.48-49.79L76.48-39.30L73.92-39.30L64.38 0L45.25 0L39.42-27.65L38.78-27.65L32.64 0L13.50 0L3.33-39.30L0.77-39.30L0.77-49.79L24.45-49.79L24.45-39.30L22.02-39.30L24.51-22.98L25.15-22.98L31.23-49.79L49.66-49.79L55.30-22.98L55.94-22.98L58.43-39.30L56-39.30ZM92.99 0.90L92.99 0.90Q83.90 0.90 78.78-3.87L78.78-3.87L78.78-3.87Q73.66-8.64 73.66-17.79L73.66-17.79L73.66-17.79Q73.66-26.94 78.78-31.71L78.78-31.71L78.78-31.71Q83.90-36.48 92.99-36.48L92.99-36.48L92.99-36.48Q102.02-36.48 106.02-31.78L106.02-31.78L106.02-31.78Q110.02-27.07 110.02-20.10L110.02-20.10L110.02-15.49L89.28-15.49L89.28-15.10L89.28-15.10Q89.28-12.74 90.69-11.62L90.69-11.62L90.69-11.62Q92.10-10.50 95.36-10.50L95.36-10.50L95.36-10.50Q99.26-10.50 102.78-11.07L102.78-11.07L102.78-11.07Q106.30-11.65 108.93-12.54L108.93-12.54L108.93-2.30L108.93-2.30Q106.69-1.09 102.37-0.10L102.37-0.10L102.37-0.10Q98.05 0.90 92.99 0.90L92.99 0.90ZM89.28-22.53L96.70-22.53L96.70-23.30L96.70-23.30Q96.70-25.47 95.78-26.43L95.78-26.43L95.78-26.43Q94.85-27.39 92.99-27.39L92.99-27.39L92.99-27.39Q91.14-27.39 90.21-26.40L90.21-26.40L90.21-26.40Q89.28-25.41 89.28-23.30L89.28-23.30L89.28-22.53ZM139.39 0.90L139.39 0.90Q136.13 0.90 133.60-0.70L133.60-0.70L133.60-0.70Q131.07-2.30 129.47-4.35L129.47-4.35L129.47 0L111.94 0L111.94-10.50L114.75-10.50L114.75-39.30L111.94-39.30L111.94-49.79L129.47-49.79L129.47-31.23L129.47-31.23Q131.07-33.28 133.60-34.88L133.60-34.88L133.60-34.88Q136.13-36.48 139.39-36.48L139.39-36.48L139.39-36.48Q145.92-36.48 149.22-31.62L149.22-31.62L149.22-31.62Q152.51-26.75 152.51-17.79L152.51-17.79L152.51-17.79Q152.51-8.83 149.22-3.97L149.22-3.97L149.22-3.97Q145.92 0.90 139.39 0.90L139.39 0.90ZM133.18-10.50L133.18-10.50Q135.04-10.50 135.97-11.49L135.97-11.49L135.97-11.49Q136.90-12.48 136.90-14.59L136.90-14.59L136.90-20.99L136.90-20.99Q136.90-23.10 135.97-24.10L135.97-24.10L135.97-24.10Q135.04-25.09 133.18-25.09L133.18-25.09L133.18-25.09Q131.33-25.09 130.40-24.10L130.40-24.10L130.40-24.10Q129.47-23.10 129.47-20.99L129.47-20.99L129.47-14.59L129.47-14.59Q129.47-12.48 130.40-11.49L130.40-11.49L130.40-11.49Q131.33-10.50 133.18-10.50L133.18-10.50ZM197.63 0L154.43 0L154.43-10.50L157.63-10.50L157.63-39.30L154.43-39.30L154.43-49.79L197.63-49.79L197.63-30.46L183.30-30.46L183.30-39.30L175.55-39.30L175.55-29.18L181.18-29.18L181.18-21.89L175.55-21.89L175.55-10.50L183.30-10.50L183.30-20.61L197.63-20.61L197.63 0ZM239.62-10.50L242.43-10.50L242.43 0L222.21 0L222.21-10.50L224.90-10.50L224.90-20.99L224.90-20.99Q224.90-23.10 224-24.10L224-24.10L224-24.10Q223.10-25.09 221.31-25.09L221.31-25.09L221.31-25.09Q217.47-25.09 217.47-20.99L217.47-20.99L217.47-10.50L220.16-10.50L220.16 0L199.94 0L199.94-10.50L202.75-10.50L202.75-25.09L199.94-25.09L199.94-35.58L217.47-35.58L217.47-30.59L217.47-30.59Q222.08-36.48 228.99-36.48L228.99-36.48L228.99-36.48Q234.30-36.48 236.96-33.15L236.96-33.15L236.96-33.15Q239.62-29.82 239.62-24L239.62-24L239.62-10.50ZM260.29 0.90L260.29 0.90Q253.50 0.90 250.08-2.40L250.08-2.40L250.08-2.40Q246.66-5.70 246.66-13.50L246.66-13.50L246.66-25.09L243.84-25.09L243.84-35.58L243.84-35.58Q246.27-35.58 247.49-36.83L247.49-36.83L247.49-36.83Q248.70-38.08 248.70-40.26L248.70-40.26L248.70-43.14L262.27-43.14L262.27-35.58L270.91-35.58L270.91-25.09L262.27-25.09L262.27-14.59L262.27-14.59Q262.27-12.48 263.20-11.49L263.20-11.49L263.20-11.49Q264.13-10.50 265.98-10.50L265.98-10.50L265.98-10.50Q268.42-10.50 271.30-11.07L271.30-11.07L271.30-1.02L271.30-1.02Q269.50-0.32 266.46 0.29L266.46 0.29L266.46 0.29Q263.42 0.90 260.29 0.90L260.29 0.90ZM298.69 0L283.97 0L275.52-25.09L272.83-25.09L272.83-35.58L292.61-35.58L292.61-25.09L289.92-25.09L292.22-15.10L292.86-15.10L297.54-35.58L309.31-35.58L313.98-15.10L314.62-15.10L316.86-25.09L314.18-25.09L314.18-35.58L332.74-35.58L332.74-25.09L330.05-25.09L321.92 0L306.37 0L302.85-17.79L302.21-17.79L298.69 0ZM350.66-39.10L337.60-39.10L337.60-49.79L350.66-49.79L350.66-39.10ZM354.88 0L334.53 0L334.53-10.50L337.34-10.50L337.34-25.09L334.53-25.09L334.53-35.58L352.06-35.58L352.06-10.50L354.88-10.50L354.88 0ZM375.81 0.90L375.81 0.90Q366.66 0.90 361.54-3.87L361.54-3.87L361.54-3.87Q356.42-8.64 356.42-17.79L356.42-17.79L356.42-17.79Q356.42-26.94 361.54-31.71L361.54-31.71L361.54-31.71Q366.66-36.48 375.74-36.48L375.74-36.48L375.74-36.48Q380.16-36.48 384.19-35.26L384.19-35.26L384.19-35.26Q388.22-34.05 390.46-32.51L390.46-32.51L390.46-19.84L379.46-19.84L379.46-20.99L379.46-20.99Q379.46-23.10 378.56-24.10L378.56-24.10L378.56-24.10Q377.66-25.09 375.74-25.09L375.74-25.09L375.74-25.09Q372.03-25.09 372.03-20.99L372.03-20.99L372.03-15.49L372.03-15.49Q372.03-10.50 377.73-10.50L377.73-10.50L377.73-10.50Q383.04-10.50 390.08-11.65L390.08-11.65L390.08-1.60L390.08-1.60Q387.90-0.64 383.97 0.13L383.97 0.13L383.97 0.13Q380.03 0.90 375.81 0.90L375.81 0.90ZM425.09-19.01L431.23-10.50L433.98-10.50L433.98 0L418.30 0L411.71-12.29L410.18-12.29L410.18 0L392.64 0L392.64-10.50L395.46-10.50L395.46-39.30L392.64-39.30L392.64-49.79L410.18-49.79L410.18-23.81L411.71-23.81L419.65-35.58L433.15-35.58L433.15-25.09L430.53-25.09L425.09-19.01ZM455.10 0.90L455.10 0.90Q446.02 0.90 440.90-3.87L440.90-3.87L440.90-3.87Q435.78-8.64 435.78-17.79L435.78-17.79L435.78-17.79Q435.78-26.94 440.90-31.71L440.90-31.71L440.90-31.71Q446.02-36.48 455.10-36.48L455.10-36.48L455.10-36.48Q464.13-36.48 468.13-31.78L468.13-31.78L468.13-31.78Q472.13-27.07 472.13-20.10L472.13-20.10L472.13-15.49L451.39-15.49L451.39-15.10L451.39-15.10Q451.39-12.74 452.80-11.62L452.80-11.62L452.80-11.62Q454.21-10.50 457.47-10.50L457.47-10.50L457.47-10.50Q461.38-10.50 464.90-11.07L464.90-11.07L464.90-11.07Q468.42-11.65 471.04-12.54L471.04-12.54L471.04-2.30L471.04-2.30Q468.80-1.09 464.48-0.10L464.48-0.10L464.48-0.10Q460.16 0.90 455.10 0.90L455.10 0.90ZM451.39-22.53L458.82-22.53L458.82-23.30L458.82-23.30Q458.82-25.47 457.89-26.43L457.89-26.43L457.89-26.43Q456.96-27.39 455.10-27.39L455.10-27.39L455.10-27.39Q453.25-27.39 452.32-26.40L452.32-26.40L452.32-26.40Q451.39-25.41 451.39-23.30L451.39-23.30L451.39-22.53ZM501.38-36.48L501.38-36.48Q502.66-36.48 503.81-36.22L503.81-36.22L503.81-36.22Q504.96-35.97 505.73-35.58L505.73-35.58L505.73-23.36L505.73-23.36Q503.10-24.45 500.10-24.45L500.10-24.45L500.10-24.45Q496.06-24.45 493.89-22.34L493.89-22.34L493.89-22.34Q491.71-20.22 491.71-16.06L491.71-16.06L491.71-10.50L497.47-10.50L497.47 0L474.18 0L474.18-10.50L476.99-10.50L476.99-25.09L474.18-25.09L474.18-35.58L491.71-35.58L491.71-30.91L491.71-30.91Q493.50-33.60 495.81-35.04L495.81-35.04L495.81-35.04Q498.11-36.48 501.38-36.48L501.38-36.48Z" fill="#040404"></path></g></g><style>text {
  font-size: 64px;
  font-family: Arial Black;
  dominant-baseline: central;
  text-anchor: middle;
}</style></svg>